<svg width="325" height="288" viewBox="0 0 325 288" fill="none" xmlns="http://www.w3.org/2000/svg">
<path d="M152 276C209.438 276 256 229.438 256 172C256 114.562 209.438 68 152 68C94.5624 68 48 114.562 48 172C48 229.438 94.5624 276 152 276Z" fill="#F22539" stroke="black" stroke-width="2"/>
<mask id="mask0" mask-type="alpha" maskUnits="userSpaceOnUse" x="0" y="0" width="325" height="288">
<path d="M325 0H0V288H325V0Z" fill="#C4C4C4"/>
</mask>
<g mask="url(#mask0)">
<mask id="mask1" mask-type="alpha" maskUnits="userSpaceOnUse" x="7" y="13" width="329" height="262">
<path fill-rule="evenodd" clip-rule="evenodd" d="M244.631 217.424L289.321 269.119H335.438V13.0752H7.56238V239.374H74.2784C93.1605 261.195 121.057 275 152.178 275C192.756 275 227.852 251.53 244.631 217.424Z" fill="#C4C4C4"/>
</mask>
<g mask="url(#mask1)">
<path d="M217.706 138.701C217.706 138.701 246.647 143.355 268.39 150.356C290.132 157.351 309.1 169.235 309.1 169.235C309.1 169.235 307.357 208.515 294.054 233.525C278.447 223.046 239.901 202.035 221.368 195.497C226.137 205.163 233.591 224.229 237.567 241.742C228.061 241.589 215.33 243.979 215.33 243.979L197.62 183.777L217.706 138.701Z" fill="#F8CC46"/>
<path d="M263.338 186.634C278.229 203.64 289.506 222.404 294.852 231.967C294.589 232.495 294.325 233.016 294.048 233.532C278.441 223.054 239.895 202.042 221.363 195.504C226.131 205.17 233.585 224.236 237.561 241.75C228.055 241.596 215.324 243.986 215.324 243.986L197.614 183.784L215.429 143.807C221.42 148.137 245.067 165.765 263.338 186.634Z" fill="#ECA539"/>
<path d="M217.706 138.701C217.706 138.701 246.647 143.355 268.39 150.356C290.132 157.351 309.1 169.235 309.1 169.235C309.1 169.235 307.357 208.515 294.054 233.525C278.447 223.046 239.901 202.035 221.368 195.497C226.137 205.163 233.591 224.229 237.567 241.742C228.061 241.589 215.33 243.979 215.33 243.979L197.62 183.777L217.706 138.701Z" stroke="#333333" stroke-width="2" stroke-miterlimit="10" stroke-linecap="round" stroke-linejoin="round"/>
<path d="M210.062 194.813C210.062 194.813 209.61 208.809 211.564 220.185C213.518 231.561 216.532 242.906 224.186 255.034C231.84 267.155 236.31 272.837 236.547 280.423C240.053 277.534 244.326 275.227 245.893 276.655C247.461 278.082 246.776 279.895 246.776 279.895C246.776 279.895 248.545 278.607 249.438 279.627C250.332 280.647 250.701 282.747 249.983 285.038C251.228 284.837 251.789 286.518 250.519 290.374C249.249 294.23 244.81 305.14 233.391 316.668C221.972 328.197 211.324 336.326 204.799 332.784C202.531 331.503 202.7 328.398 202.7 328.398C202.7 328.398 201.419 329.002 197.148 328.246C192.877 327.49 172.489 321.373 159.153 320.895C145.818 320.416 127.635 320.501 108.427 326.872C108.581 329.152 107.544 334.57 98.7799 330.854C90.0162 327.138 78.6779 319.718 68.7573 306.766C58.8367 293.813 56.7158 285.308 58.129 284.449C58.8309 283.941 60.0322 284.499 60.0322 284.499C60.0322 284.499 57.7669 278.899 59.2979 277.953C60.8288 277.006 62.9085 279.251 62.9085 279.251C62.9085 279.251 62.6 277.379 63.7385 276.872C64.877 276.364 66.6521 276.775 69.801 278.957C69.7098 275.282 69.7888 270.594 74.7558 264.115C79.7228 257.636 83.5903 255.763 87.7261 254.922C89.4359 248.834 90.4287 245.558 90.9546 241.916C90.9546 241.916 81.6837 237.059 70.141 222.133C58.5982 207.206 51.4308 194.135 48.6071 186.569C45.7896 179.002 44.07 174.236 43.2481 173.424C42.4256 172.607 41.3845 171.126 41.5281 170.478C41.6717 169.829 43.5639 170.273 43.7074 169.624C43.851 168.976 42.4364 166.423 42.8824 165.636C43.3285 164.849 45.6353 165.201 45.8155 164.916C45.9957 164.632 45.1731 162.178 45.6356 161.555C46.0974 160.925 48.5659 161.311 49.0385 160.788C49.511 160.265 48.1921 157.594 48.912 156.888C49.6318 156.181 55.0549 157.697 55.5603 157.437C56.0594 157.177 56.33 154.081 57.1581 153.947C57.9862 153.813 74.6123 161.278 83.6293 166.002C92.6464 170.726 210.062 194.813 210.062 194.813Z" fill="#F8CC46" stroke="#333333" stroke-width="1.2" stroke-miterlimit="10" stroke-linecap="round" stroke-linejoin="round"/>
<path d="M92.1514 233.557C92.1514 233.557 80.2047 231.474 66.6807 217.546C72.8399 225.499 80.6763 236.036 90.3229 241.547C91.1628 238.196 92.1514 233.557 92.1514 233.557Z" fill="#ECA539"/>
<path d="M210.062 194.813C210.062 194.813 209.61 208.809 211.564 220.185C213.518 231.561 216.532 242.906 224.186 255.034C231.84 267.155 236.31 272.837 236.547 280.423C240.053 277.534 244.326 275.227 245.893 276.655C247.461 278.082 246.776 279.895 246.776 279.895C246.776 279.895 248.545 278.607 249.438 279.627C250.332 280.647 250.701 282.747 249.983 285.038C251.228 284.837 251.789 286.518 250.519 290.374C249.249 294.23 244.81 305.14 233.391 316.668C221.972 328.197 211.324 336.326 204.799 332.784C202.531 331.503 202.7 328.398 202.7 328.398C202.7 328.398 201.419 329.002 197.148 328.246C192.877 327.49 172.489 321.373 159.153 320.895C145.818 320.416 127.635 320.501 108.427 326.872C108.581 329.152 107.544 334.57 98.7799 330.854C90.0162 327.138 78.6779 319.718 68.7573 306.766C58.8367 293.813 56.7158 285.308 58.129 284.449C58.8308 283.941 60.0322 284.499 60.0322 284.499C60.0322 284.499 57.7669 278.899 59.2979 277.953C60.8288 277.006 62.9085 279.251 62.9085 279.251C62.9085 279.251 62.6 277.379 63.7385 276.872C64.877 276.364 66.6521 276.775 69.801 278.957C69.7098 275.282 69.7888 270.594 74.7558 264.115C79.7229 257.636 83.5903 255.763 87.7261 254.922C89.4359 248.834 90.4287 245.558 90.9546 241.916C90.9546 241.916 81.6837 237.059 70.141 222.133C58.5982 207.206 51.4308 194.135 48.6071 186.569C45.7896 179.002 44.07 174.236 43.2481 173.424C42.4256 172.607 41.3845 171.126 41.5281 170.478C41.6717 169.829 43.5639 170.273 43.7074 169.624C43.851 168.976 42.4364 166.423 42.8824 165.636C43.3285 164.849 45.6353 165.201 45.8155 164.916C45.9957 164.632 45.1731 162.178 45.6356 161.555C46.0974 160.925 48.5659 161.311 49.0385 160.788C49.511 160.265 48.1921 157.594 48.912 156.888C49.6318 156.181 55.0549 157.697 55.5603 157.437C56.0593 157.177 56.33 154.081 57.1581 153.947C57.9862 153.813 74.6123 161.278 83.6293 166.002C92.6464 170.726 210.062 194.813 210.062 194.813Z" stroke="#333333" stroke-width="2" stroke-miterlimit="10" stroke-linecap="round" stroke-linejoin="round"/>
<path d="M212.497 193.852C222.621 182.846 221.034 176.506 219.069 166.4C217.103 156.293 219.21 147.363 219.438 138.621C219.666 129.879 218.891 121.663 216.677 116.388C262.965 132.023 296.801 116.147 308.761 109.238C249.302 71.6744 197.783 96.2534 197.783 96.2534C197.783 96.2534 176.109 77.3494 137.666 83.5939C154.021 70.0595 173.467 53.7284 183.044 16.8369C161.709 20.6759 112.906 45.026 101.63 100.693C99.0628 104.546 95.0589 106.636 93.2743 120.347C91.4897 134.058 88.5394 147.189 84.8965 155.006C81.2536 162.823 78.2842 174.694 98.2017 196.578C112.122 211.239 117.761 214.902 117.761 214.902" fill="#F8CC46"/>
<path d="M156.674 146.835C156.667 147.704 155.928 148.85 154.058 148.759C152.189 148.668 151.475 147.041 151.911 146.28C152.347 145.52 156.689 145.407 156.674 146.835Z" fill="#333333"/>
<path d="M188.53 138.007C182.55 140.765 181.849 150.968 185.768 155.33C189.686 159.691 197.494 160.25 201.531 156.357C205.569 152.463 206.11 143.69 201.095 139.438C196.08 135.187 190.949 136.889 188.53 138.007Z" fill="#333333"/>
<path d="M188.954 138.637C187.811 139.221 185.597 142.621 187.348 145.064C189.1 147.506 192.372 147.45 194.036 146.255C195.7 145.061 196.307 142.102 194.792 139.997C193.277 137.892 190.495 137.848 188.954 138.637Z" fill="white"/>
<path d="M121.156 129.697C118.226 127.297 110.976 126.492 106.327 131.664C101.678 136.837 102.81 144.383 107.467 147.719C112.124 151.055 120.922 148.319 122.956 143.942C124.996 139.558 124.776 132.662 121.156 129.697Z" fill="#333333"/>
<path d="M120.688 131.077C119.173 129.986 116.195 130.064 114.931 131.656C113.667 133.247 113.751 136.847 115.586 138.172C117.422 139.496 120.686 138.927 121.826 137.303C122.966 135.679 122.863 132.64 120.688 131.077Z" fill="white"/>
<path d="M183.044 16.8359C179.865 29.0831 175.592 39.0562 170.713 47.4224C168.617 45.3314 163.41 44.8342 148.855 47.0147C136.02 48.9334 122.853 58.5581 116.957 63.3489C136.49 33.7247 167.27 19.6716 183.044 16.8359Z" fill="#333333"/>
<path d="M308.761 109.244C298.93 114.925 274.314 126.659 240.156 121.972C245.939 120.654 257.064 117.456 265.696 110.988C275.88 103.35 278.505 97.7468 277.319 94.3848C287.364 97.6231 297.93 102.401 308.761 109.244Z" fill="#333333"/>
<path d="M109.95 94.1441C109.95 94.1441 109.789 94.1856 109.516 94.3018C109.235 94.3998 108.855 94.5839 108.403 94.8069C107.959 95.0482 107.435 95.3164 106.914 95.6732C106.385 96.0117 105.843 96.4024 105.308 96.8176C105.044 97.0217 104.774 97.2264 104.515 97.4237C104.258 97.6334 104.014 97.8482 103.782 98.0555C103.311 98.4706 102.869 98.8574 102.52 99.2223C101.814 99.9401 101.357 100.43 101.357 100.43C101.214 100.583 101.225 100.823 101.373 100.967C101.512 101.099 101.734 101.102 101.874 100.98L101.891 100.966C101.891 100.966 102.392 100.535 103.116 99.8725C103.302 99.7079 103.485 99.512 103.701 99.3317C103.917 99.1515 104.144 98.9574 104.377 98.7565C104.611 98.5618 104.855 98.347 105.093 98.1328C105.344 97.93 105.595 97.7208 105.853 97.5173C106.355 97.0928 106.886 96.7096 107.373 96.3309C107.853 95.9466 108.326 95.6199 108.706 95.3028C109.107 95.0151 109.436 94.7601 109.665 94.5849C109.9 94.409 110.029 94.3073 110.029 94.3073C110.071 94.2778 110.077 94.2137 110.047 94.1723C110.032 94.1485 109.993 94.1334 109.95 94.1441Z" fill="#333333" stroke="#333333"/>
<path d="M170.932 169.814C170.932 169.814 168.582 179.486 163.065 189.869C157.548 200.253 152.334 205.85 148.356 205.616C144.378 205.382 138.02 195.635 136.189 181.393C134.364 167.151 134.586 165.461 134.586 165.461C134.586 165.461 140.162 165.851 144.759 163.562C149.357 161.274 152.754 158.117 159.137 162.573C165.507 167.03 167.291 169.787 170.932 169.814Z" fill="#6C4C59" stroke="#333333" stroke-width="1.2" stroke-miterlimit="10" stroke-linecap="round" stroke-linejoin="round"/>
<path d="M136.128 180.917C138.385 177.811 143.243 173.023 151.523 173.433C160.883 173.893 164.507 181.176 165.684 184.507C164.902 186.24 164.033 188.04 163.065 189.868C157.542 200.253 152.334 205.849 148.356 205.615C144.378 205.381 138.02 195.634 136.189 181.392C136.166 181.23 136.151 181.079 136.128 180.917Z" fill="#F26981" stroke="#333333" stroke-width="1.2" stroke-miterlimit="10" stroke-linecap="round" stroke-linejoin="round"/>
<path d="M176.046 168.139C176.046 168.139 175.969 168.185 175.837 168.255C175.711 168.331 175.517 168.414 175.287 168.52C175.058 168.632 174.783 168.729 174.491 168.841C174.19 168.928 173.887 169.067 173.557 169.119C173.396 169.154 173.235 169.189 173.075 169.231C172.921 169.278 172.757 169.282 172.608 169.303C172.458 169.325 172.307 169.333 172.17 169.36C172.034 169.392 171.902 169.393 171.775 169.393C171.288 169.398 170.957 169.437 170.957 169.437L170.894 169.444C170.688 169.465 170.542 169.65 170.563 169.858C170.581 170.04 170.728 170.177 170.9 170.191C170.9 170.191 171.264 170.225 171.815 170.226C172.089 170.249 172.405 170.18 172.747 170.12C172.914 170.084 173.09 170.073 173.261 170.011C173.433 169.962 173.605 169.907 173.776 169.845C174.126 169.746 174.436 169.55 174.745 169.418C174.895 169.339 175.031 169.243 175.162 169.16C175.293 169.077 175.418 169.001 175.524 168.921C175.742 168.76 175.911 168.616 176.026 168.503C176.142 168.396 176.199 168.333 176.199 168.333L176.204 168.326C176.249 168.271 176.242 168.196 176.187 168.15C176.152 168.116 176.088 168.116 176.046 168.139Z" fill="#333333"/>
<path d="M129.275 162.8C129.275 162.8 129.315 162.878 129.425 163.026C129.528 163.174 129.68 163.362 129.873 163.583C129.966 163.694 130.091 163.796 130.21 163.917C130.335 164.025 130.457 164.165 130.607 164.27C130.906 164.481 131.21 164.736 131.563 164.91C131.9 165.117 132.259 165.284 132.606 165.401C132.777 165.466 132.942 165.532 133.105 165.585C133.263 165.646 133.423 165.661 133.566 165.698C134.147 165.81 134.531 165.854 134.531 165.854C134.735 165.878 134.923 165.726 134.946 165.521C134.966 165.341 134.855 165.181 134.697 165.121L134.645 165.101C134.645 165.101 134.304 164.983 133.784 164.845C133.653 164.807 133.512 164.79 133.373 164.721C133.234 164.659 133.083 164.611 132.925 164.551C132.767 164.491 132.604 164.444 132.445 164.371C132.292 164.291 132.132 164.212 131.966 164.14C131.631 164.009 131.338 163.804 131.049 163.636C130.895 163.557 130.771 163.455 130.643 163.373C130.52 163.284 130.386 163.208 130.289 163.123C130.076 162.954 129.891 162.821 129.78 162.718C129.662 162.622 129.592 162.553 129.592 162.553C129.514 162.472 129.388 162.472 129.307 162.55C129.244 162.613 129.234 162.703 129.267 162.782L129.275 162.8Z" fill="#333333"/>
<path d="M208.173 165.015C212.721 164.19 217.513 167.925 219.758 169.988C221.249 178.145 221.372 184.207 212.497 193.857C210.98 195.506 209.553 196.98 208.182 198.323C194.387 197.244 193.506 185.018 195.038 177.54C196.628 169.765 201.958 166.141 208.173 165.015Z" fill="#F22539" stroke="#333333" stroke-width="1.2" stroke-miterlimit="10" stroke-linecap="round" stroke-linejoin="round"/>
<path d="M83.3127 159.016C86.1613 156.072 92.0474 152.817 98.6146 156.963C107.06 162.296 108.229 175.495 104.097 182.41C101 187.598 94.3184 188.105 91.173 188.034C81.3271 174.504 81.2837 165.517 83.3127 159.016Z" fill="#F22539" stroke="#333333" stroke-width="1.2" stroke-miterlimit="10" stroke-linecap="round" stroke-linejoin="round"/>
<path d="M158.156 222.145C158.124 223.842 151.381 228.325 144.299 228.187C137.218 228.056 131.915 223.517 131.974 222.027C132.033 220.537 138.896 221.648 144.208 222.064C149.522 222.488 158.192 220.24 158.156 222.145Z" fill="#ECA539"/>
<path d="M91.3143 241.968C91.3143 241.968 91.6218 240.244 92.0833 237.661C92.2752 236.361 92.4563 234.827 92.6718 233.195C92.8678 231.558 93.0212 229.812 93.1814 228.071C93.3029 226.321 93.45 224.576 93.5445 222.936C93.6391 221.297 93.7061 219.762 93.7195 218.448C93.7329 217.134 93.7364 216.037 93.7101 215.272C93.6964 214.507 93.6647 214.066 93.6647 214.066C93.6634 213.99 93.5944 213.933 93.5255 213.94C93.4566 213.947 93.4047 213.997 93.3985 214.061C93.3985 214.061 93.3537 214.497 93.266 215.26C93.1782 216.023 93.0977 217.11 92.9696 218.416C92.8667 219.72 92.7351 221.242 92.6273 222.876C92.5196 224.511 92.3594 226.251 92.2242 227.99C92.1346 228.861 92.0508 229.726 91.9656 230.578C91.8805 231.43 91.8204 232.279 91.7245 233.088C91.5335 234.711 91.3561 236.219 91.2018 237.515C90.8305 240.115 90.5806 241.845 90.5806 241.845C90.5507 242.051 90.6906 242.247 90.8961 242.277C91.089 242.308 91.2838 242.168 91.3143 241.968Z" fill="#333333" stroke="#333333"/>
<path d="M103.684 255.866C103.684 255.866 103.462 255.736 103.051 255.549C102.64 255.369 102.057 255.104 101.324 254.861C100.596 254.61 99.729 254.355 98.7848 254.152C98.3136 254.06 97.8217 253.951 97.3218 253.887C96.8199 253.804 96.3074 253.742 95.7969 253.698C95.285 253.642 94.7663 253.643 94.2583 253.625C93.7489 253.593 93.2472 253.637 92.7667 253.641C92.2793 253.64 91.8189 253.718 91.3736 253.756C90.9282 253.795 90.5179 253.868 90.1327 253.938C89.7538 254.008 89.3986 254.063 89.0968 254.144C88.7886 254.225 88.5237 254.296 88.3082 254.356C87.8711 254.476 87.6249 254.545 87.6249 254.545C87.422 254.604 87.31 254.812 87.3615 255.009C87.4124 255.201 87.608 255.321 87.7996 255.276L87.8309 255.273C87.8309 255.273 88.0727 255.223 88.4999 255.129C88.7103 255.083 88.9703 255.025 89.2671 254.957C89.5647 254.896 89.9085 254.855 90.2756 254.792C90.6426 254.73 91.041 254.665 91.4745 254.634C91.9011 254.597 92.3502 254.533 92.8175 254.524C93.2842 254.509 93.7665 254.46 94.2614 254.474C94.7557 254.481 95.255 254.475 95.7524 254.514C96.2542 254.533 96.751 254.566 97.2378 254.625C97.729 254.664 98.2051 254.743 98.6738 254.81C99.6004 254.964 100.471 255.124 101.199 255.317C102.671 255.676 103.612 256.038 103.612 256.038C103.665 256.058 103.719 256.034 103.739 255.981C103.742 255.943 103.724 255.887 103.684 255.866Z" fill="#333333" stroke="#333333"/>
<path d="M151.523 173.436C160.883 173.896 164.507 181.178 165.684 184.51C165.523 184.868 165.352 185.234 165.18 185.606C163.521 183.389 158.965 178.419 151.469 178.438C143.226 178.455 139.024 179.575 136.411 182.977C136.327 182.459 136.255 181.934 136.183 181.402C136.16 181.239 136.145 181.082 136.122 180.926C138.385 177.82 143.243 173.026 151.523 173.436Z" fill="#B94966"/>
<path d="M136.128 180.917C138.385 177.811 143.243 173.023 151.523 173.433C160.883 173.893 164.507 181.176 165.684 184.507C164.902 186.24 164.033 188.04 163.065 189.868C157.542 200.253 152.334 205.849 148.356 205.615C144.378 205.381 138.02 195.634 136.189 181.392C136.166 181.23 136.151 181.079 136.128 180.917Z" stroke="#333333" stroke-width="1.2" stroke-miterlimit="10" stroke-linecap="round" stroke-linejoin="round"/>
<path d="M240.156 121.972C240.156 121.972 219.053 115.357 213.423 110.774C215.472 113.973 216.522 116.043 216.522 116.043C216.522 116.043 231.765 121.402 240.156 121.972Z" fill="#ECA539"/>
<path d="M217.021 116.227C217.021 116.227 216.746 115.569 216.307 114.599C216.207 114.356 216.048 114.099 215.894 113.829C215.74 113.559 215.579 113.271 215.409 112.971C215.07 112.371 214.64 111.805 214.244 111.198C214.049 110.895 213.824 110.613 213.607 110.337C213.389 110.061 213.172 109.785 212.962 109.527C212.524 109.013 212.116 108.54 211.736 108.16C211.368 107.766 211.04 107.463 210.81 107.251C210.579 107.033 210.435 106.927 210.435 106.927C210.388 106.894 210.325 106.9 210.285 106.942C210.257 106.977 210.256 107.034 210.285 107.069C210.285 107.069 210.704 107.642 211.328 108.505C211.649 108.929 211.98 109.454 212.381 109.978C212.567 110.251 212.76 110.536 212.953 110.821C213.141 111.113 213.365 111.388 213.546 111.687C213.916 112.284 214.329 112.864 214.633 113.436C214.801 113.717 214.961 113.986 215.113 114.244C215.266 114.501 215.416 114.733 215.529 114.982C216.011 115.935 216.352 116.56 216.352 116.56C216.453 116.747 216.681 116.812 216.867 116.711C217.022 116.613 217.09 116.404 217.021 116.227Z" fill="#333333" stroke="#333333"/>
<path d="M160.979 61.3633C160.979 61.3633 142.047 78.1562 127.381 86.3338C134.586 84.1823 137.66 83.6005 137.66 83.6005C137.66 83.6005 157.024 67.5885 160.979 61.3633Z" fill="#ECA539"/>
<path d="M183.077 215.338C185.244 214.233 187.41 213.127 189.553 211.967C191.703 210.825 193.821 209.61 195.908 208.347C197.995 207.078 200.012 205.683 201.944 204.189C203.868 202.683 205.704 201.059 207.463 199.366C209.209 197.656 210.906 195.907 212.554 194.111C214.202 192.316 215.777 190.426 217.12 188.37C218.457 186.314 219.561 184.079 220.168 181.684C220.801 179.294 220.865 176.782 220.632 174.345C220.405 171.895 219.917 169.497 219.455 167.108C218.981 164.721 218.67 162.324 218.566 159.899C218.331 155.047 218.83 150.196 219.278 145.345C219.503 142.919 219.687 140.478 219.739 138.032C219.791 135.591 219.778 133.139 219.659 130.697C219.534 128.255 219.307 125.811 218.918 123.39C218.51 120.971 217.951 118.56 217.011 116.258L216.543 116.762L219.386 117.668L220.805 118.121L222.238 118.529L225.11 119.343L228.004 120.06C228.966 120.312 229.942 120.519 230.912 120.725C231.888 120.925 232.854 121.158 233.833 121.332L236.771 121.855C237.751 122.035 238.737 122.151 239.72 122.3L241.197 122.513L242.681 122.68C243.673 122.784 244.661 122.919 245.649 122.991L248.627 123.224L251.609 123.368C252.602 123.426 253.6 123.415 254.596 123.435L256.091 123.456L257.581 123.427C259.573 123.41 261.562 123.305 263.543 123.182L266.517 122.94L269.484 122.616L272.442 122.205L275.385 121.712L278.314 121.145L281.229 120.496L284.124 119.768C285.083 119.494 286.045 119.239 286.997 118.953C294.648 116.642 302.044 113.552 308.945 109.567C309.125 109.466 309.19 109.232 309.083 109.052C309.052 108.998 309.003 108.952 308.956 108.919C306.897 107.636 304.822 106.38 302.708 105.185C301.649 104.594 300.595 103.99 299.52 103.432C298.45 102.855 297.375 102.297 296.29 101.759C294.129 100.664 291.92 99.6501 289.707 98.6615C287.479 97.7062 285.24 96.771 282.96 95.935C273.874 92.5307 264.403 90.1542 254.777 88.941C245.157 87.7147 235.387 87.651 225.748 88.76C220.932 89.3141 216.146 90.1696 211.434 91.322C209.082 91.9073 206.744 92.5611 204.434 93.3133C202.125 94.0719 199.846 94.8844 197.608 95.9022L198.018 95.9561C196.975 95.0907 195.899 94.3303 194.794 93.5918C193.689 92.8595 192.55 92.175 191.403 91.5232C190.255 90.8651 189.08 90.2603 187.889 89.6763C186.704 89.0916 185.492 88.5541 184.276 88.036C183.054 87.5248 181.822 87.0462 180.582 86.6003C179.335 86.1613 178.084 85.7355 176.813 85.3624C176.185 85.1592 175.547 84.9887 174.904 84.8188C174.267 84.6483 173.628 84.4652 172.987 84.3204L171.056 83.8679L169.111 83.4674C168.465 83.3295 167.81 83.2369 167.159 83.1184C166.509 83.0063 165.858 82.8942 165.205 82.8141L163.242 82.5486L161.273 82.3471C159.962 82.2064 158.639 82.1428 157.321 82.0535C156.001 82.0213 154.682 81.932 153.363 81.957L151.382 81.9596L149.402 82.0256C148.083 82.0568 146.766 82.1703 145.446 82.2587C144.125 82.3407 142.822 82.5289 141.506 82.6549C140.193 82.8186 138.892 83.0256 137.588 83.2075L137.889 83.8747C143.176 79.5067 148.444 75.0771 153.328 70.2233C154.554 69.0156 155.745 67.7734 156.922 66.52C158.086 65.2552 159.235 63.9729 160.35 62.6623C162.579 60.0349 164.683 57.3058 166.645 54.477C168.606 51.6482 170.432 48.719 172.103 45.7101L173.336 43.4364L174.509 41.1371C175.258 39.5844 176 38.0322 176.689 36.4538C177.047 35.6695 177.365 34.8703 177.697 34.076C178.034 33.2811 178.353 32.4819 178.658 31.6776C179.294 30.079 179.858 28.4497 180.435 26.8255C180.966 25.1868 181.524 23.5581 181.996 21.9C182.508 20.2569 182.934 18.5844 183.394 16.9275C183.45 16.7254 183.334 16.5214 183.132 16.4656C183.074 16.4524 183.017 16.4455 182.967 16.4569L182.961 16.4575C177.867 17.401 172.951 19.0368 168.172 20.9696C163.401 22.9205 158.781 25.2305 154.328 27.828C145.422 33.0166 137.184 39.3682 129.944 46.7164C126.327 50.3902 122.95 54.3062 119.888 58.4632C116.825 62.6139 114.044 66.9836 111.63 71.5446C106.763 80.6516 103.292 90.4932 101.248 100.616L101.304 100.483C100.561 101.585 99.6572 102.602 98.8111 103.689C97.9581 104.77 97.1759 105.927 96.5273 107.153C95.2043 109.6 94.4039 112.274 93.7877 114.955C93.1784 117.642 92.846 120.376 92.4647 123.065C92.0778 125.761 91.6333 128.45 91.1499 131.13C90.1769 136.491 88.9914 141.816 87.4138 147.016C86.6183 149.613 85.712 152.178 84.5989 154.636C83.4375 157.118 82.4824 159.763 82.0823 162.517C81.6692 165.266 81.8073 168.087 82.352 170.797C82.9035 173.512 83.8496 176.125 85.018 178.62C86.1802 181.115 87.589 183.485 89.1093 185.767C90.6359 188.048 92.2864 190.241 94.0296 192.348C94.9012 193.402 95.7853 194.455 96.6976 195.472C97.1603 195.984 97.5911 196.492 98.0795 197.008L99.5052 198.475L102.351 201.416C103.303 202.392 104.285 203.346 105.261 204.307C106.231 205.268 107.212 206.216 108.223 207.141C109.227 208.067 110.203 209.022 111.247 209.906C113.289 211.717 115.396 213.471 117.67 215.011C117.731 215.05 117.812 215.035 117.85 214.974C117.888 214.913 117.874 214.839 117.819 214.793L117.812 214.788C117.272 214.392 116.736 213.964 116.217 213.528C115.693 213.092 115.174 212.656 114.672 212.193C113.64 211.308 112.643 210.387 111.644 209.454C110.641 208.54 109.666 207.586 108.679 206.645C107.687 205.711 106.724 204.756 105.766 203.787C104.808 202.824 103.827 201.876 102.875 200.901L100.029 197.959L98.6091 196.485C98.1557 196.004 97.7043 195.479 97.2554 194.979C96.35 193.967 95.4734 192.926 94.6143 191.871C92.8849 189.775 91.2551 187.599 89.7499 185.341C88.2509 183.082 86.8639 180.742 85.725 178.289C84.5804 175.842 83.6588 173.284 83.1274 170.643C82.6029 168.007 82.4685 165.287 82.8724 162.634C83.2631 159.976 84.1776 157.43 85.3352 154.974C86.4752 152.469 87.3909 149.872 88.2033 147.254C89.8016 142.007 91.0039 136.661 91.9876 131.28C92.4822 128.586 92.9136 125.893 93.2986 123.178C93.6718 120.471 93.9948 117.769 94.5834 115.129C95.179 112.494 95.9537 109.88 97.2223 107.52C97.8434 106.336 98.5918 105.22 99.4216 104.16C100.245 103.095 101.153 102.065 101.935 100.902C101.962 100.861 101.977 100.822 101.992 100.776L101.991 100.769C104.024 90.7177 107.47 80.9483 112.299 71.9022C114.697 67.3745 117.463 63.0381 120.503 58.915C123.542 54.7856 126.898 50.9035 130.491 47.2511C137.685 39.9519 145.871 33.6436 154.717 28.4864C159.14 25.9109 163.731 23.6166 168.471 21.6751C173.206 19.753 178.093 18.1329 183.105 17.2039L182.672 16.7338C182.218 18.3838 181.79 20.0438 181.284 21.6799C180.811 23.3255 180.259 24.9472 179.733 26.579C179.161 28.1901 178.603 29.8125 177.965 31.3985C177.667 32.2021 177.348 32.9951 177.009 33.7837C176.677 34.5717 176.365 35.3703 176.007 36.1483C175.324 37.7198 174.587 39.2651 173.843 40.8046L172.675 43.0908L171.452 45.3443C169.792 48.3331 167.983 51.2416 166.032 54.0503C164.081 56.8591 161.994 59.5737 159.782 62.1804C158.673 63.4841 157.536 64.7588 156.378 66.0167C155.207 67.2632 154.021 68.4985 152.807 69.6986C147.952 74.5242 142.707 78.9387 137.414 83.3011C137.25 83.4318 137.23 83.6747 137.366 83.8322C137.452 83.9377 137.583 83.9816 137.709 83.969L137.715 83.9683C139.013 83.7871 140.308 83.5807 141.608 83.4183C142.911 83.2935 144.209 83.106 145.517 83.0251C146.823 82.9318 148.128 82.8195 149.435 82.7896L151.395 82.7192L153.357 82.7185C154.664 82.6948 155.977 82.7847 157.283 82.8119C158.589 82.9024 159.898 82.961 161.197 83.103L163.154 83.3057L165.098 83.5731C165.745 83.6538 166.395 83.7597 167.039 83.8787C167.684 83.9978 168.332 84.0848 168.972 84.2233L170.898 84.6194L172.809 85.0676C173.45 85.2123 174.076 85.3904 174.707 85.5616C175.338 85.7327 175.969 85.9039 176.596 86.1008C177.854 86.4688 179.092 86.8896 180.325 87.3236C181.559 87.7638 182.778 88.2437 183.986 88.7436C185.189 89.2566 186.382 89.7898 187.56 90.3688C188.732 90.9485 189.899 91.5476 191.034 92.1944C192.168 92.8413 193.293 93.5145 194.378 94.236C195.463 94.9576 196.539 95.718 197.52 96.5388C197.638 96.6411 197.797 96.6567 197.93 96.5927C200.097 95.6138 202.38 94.7881 204.666 94.0446C206.957 93.3005 209.277 92.6487 211.617 92.0709C216.297 90.9216 221.046 90.0699 225.838 89.5246C235.414 88.4219 245.12 88.4856 254.683 89.7051C264.246 90.9183 273.664 93.2747 282.698 96.6589C284.964 97.4899 287.19 98.4201 289.405 99.3704C291.611 100.353 293.8 101.357 295.954 102.446C297.032 102.978 298.107 103.536 299.164 104.108C300.233 104.667 301.28 105.265 302.339 105.85C304.438 107.034 306.506 108.284 308.552 109.562L308.563 108.914C301.715 112.862 294.368 115.935 286.8 118.192C285.854 118.478 284.899 118.732 283.945 118.999L281.07 119.726L278.174 120.373L275.263 120.938L272.338 121.422L269.399 121.832L266.451 122.154L263.495 122.394C261.52 122.517 259.551 122.626 257.572 122.641L256.088 122.67L254.605 122.648C253.616 122.627 252.63 122.637 251.643 122.578L248.681 122.438L245.722 122.21C244.734 122.138 243.758 122.001 242.774 121.904L241.303 121.741L239.832 121.528C238.855 121.379 237.869 121.262 236.902 121.087L233.984 120.569C233.011 120.394 232.046 120.168 231.076 119.967C230.107 119.766 229.143 119.559 228.182 119.307L225.301 118.595L222.448 117.785L221.021 117.377L219.609 116.923L216.785 116.021C216.582 115.959 216.372 116.069 216.309 116.265C216.28 116.351 216.289 116.439 216.316 116.518V116.525C217.241 118.733 217.808 121.099 218.231 123.478C218.629 125.867 218.878 128.283 219.021 130.704C219.157 133.131 219.192 135.556 219.146 137.99C219.105 140.416 218.925 142.837 218.708 145.269C218.271 150.113 217.782 155 218.034 159.902C218.148 162.351 218.476 164.797 218.957 167.184C219.425 169.572 219.912 171.964 220.147 174.369C220.377 176.774 220.319 179.215 219.711 181.546C219.124 183.882 218.054 186.076 216.739 188.104C215.418 190.133 213.879 192.006 212.231 193.795C210.561 195.561 208.884 197.321 207.093 198.96C205.303 200.598 203.455 202.166 201.513 203.617C199.585 205.079 197.575 206.429 195.515 207.708C193.462 208.999 191.348 210.194 189.251 211.42C187.139 212.628 185.027 213.842 182.93 215.068C182.858 215.107 182.835 215.198 182.88 215.263C182.926 215.347 183.011 215.37 183.077 215.338Z" fill="#333333" stroke="#333333"/>
<path d="M120.949 89.2579C120.949 89.2579 121.977 88.8501 123.516 88.2325C123.898 88.0735 124.327 87.9352 124.765 87.758C125.21 87.5865 125.673 87.4131 126.154 87.2252C126.643 87.0555 127.145 86.8846 127.658 86.6998C128.164 86.5094 128.683 86.3241 129.212 86.1694C129.739 86.0023 130.261 85.842 130.776 85.6823C131.29 85.5101 131.809 85.3882 132.302 85.2499C132.801 85.1172 133.281 84.9865 133.737 84.8645C134.193 84.7363 134.625 84.6294 135.029 84.5571C136.64 84.2175 137.716 83.9761 137.716 83.9761L137.747 83.9666C137.951 83.9207 138.076 83.7179 138.03 83.5133C137.985 83.3149 137.796 83.1945 137.602 83.2203C137.602 83.2203 136.5 83.3946 134.846 83.6877C134.429 83.755 133.99 83.8562 133.529 83.9851C133.066 84.1014 132.572 84.2271 132.067 84.3604C131.561 84.4874 131.03 84.6169 130.517 84.8079C129.997 84.9808 129.464 85.1549 128.938 85.3346C128.404 85.5024 127.886 85.7003 127.368 85.8983C126.856 86.0893 126.352 86.2985 125.872 86.4927C125.393 86.7057 124.933 86.9105 124.497 87.1065C124.061 87.2962 123.651 87.5023 123.285 87.6977C122.912 87.8937 122.575 88.0671 122.275 88.2304C121.982 88.3994 121.726 88.552 121.516 88.6745C121.092 88.9201 120.867 89.0759 120.868 89.0822C120.82 89.1123 120.808 89.177 120.838 89.2247C120.853 89.2548 120.905 89.2686 120.949 89.2579Z" fill="#333333" stroke="#333333"/>
<path d="M192.968 275.801C192.968 275.801 211.213 271.239 207.1 258.653C202.938 266.092 200.285 269.852 192.968 275.801Z" fill="#ECA539"/>
<path d="M169.63 229.152C169.63 229.152 169.532 229.251 169.337 229.448C169.141 229.639 168.86 229.933 168.501 230.325C167.769 231.096 166.734 232.252 165.477 233.787C164.206 235.303 162.754 237.225 161.179 239.495C159.61 241.764 157.926 244.394 156.276 247.369C154.627 250.344 152.979 253.654 151.621 257.323C151.31 258.255 150.999 259.193 150.677 260.145C150.375 261.101 150.105 262.066 149.818 263.053C149.263 265.017 148.719 267.031 148.218 269.098C147.716 271.159 147.246 273.273 146.861 275.43C146.497 277.597 146.148 279.788 146.21 282.103C146.25 282.688 146.277 283.269 146.552 283.926C146.88 284.8 147.985 284.898 148.602 284.684C148.927 284.581 149.215 284.419 149.433 284.321C149.534 284.26 149.661 284.26 149.533 284.254C149.52 284.243 149.443 284.238 149.414 284.203C149.38 284.181 149.36 284.17 149.351 284.139C149.286 284 149.343 284.127 149.335 284.109L149.353 284.158C149.369 284.195 149.379 284.225 149.373 284.232L149.416 284.539L149.464 284.946L149.548 285.787C149.612 286.358 149.689 286.933 149.843 287.527C149.918 287.824 150.024 288.124 150.168 288.426C150.343 288.719 150.523 289.056 150.93 289.269L150.998 289.313C151.018 289.324 151.11 289.365 151.09 289.354L151.189 289.389C151.254 289.414 151.314 289.44 151.424 289.46C151.638 289.515 151.81 289.523 151.987 289.524C152.335 289.521 152.657 289.45 152.958 289.369C153.543 289.203 154.081 288.952 154.476 288.919C154.664 288.906 154.731 288.937 154.83 289.042C154.915 289.128 155.033 289.364 155.12 289.596C155.301 290.078 155.408 290.632 155.677 291.233C155.749 291.384 155.828 291.541 155.958 291.705C156.03 291.787 156.088 291.864 156.197 291.941L156.272 291.997C156.333 292.029 156.247 292 156.42 292.078L156.518 292.112C156.538 292.116 156.544 292.122 156.571 292.132L156.693 292.151C156.776 292.162 156.859 292.166 156.941 292.165C157.053 292.147 157.165 292.123 157.263 292.094C157.446 292.031 157.603 291.952 157.74 291.869C158.277 291.542 158.717 291.136 159.096 290.946C159.174 290.9 159.257 290.904 159.18 290.899C159.173 290.894 159.136 290.898 159.121 290.88L159.065 290.822L159.101 290.863C159.177 290.931 159.145 290.928 159.145 290.928C159.207 291.043 159.266 291.309 159.311 291.571C159.358 291.845 159.4 292.145 159.516 292.476C159.624 292.795 159.874 293.208 160.299 293.399C160.437 293.455 160.364 293.425 160.41 293.439L160.462 293.453C160.507 293.461 160.508 293.473 160.585 293.485C160.714 293.504 160.88 293.519 160.966 293.497C161.179 293.476 161.357 293.414 161.514 293.347C161.829 293.207 162.079 293.043 162.311 292.899C162.543 292.749 162.769 292.612 162.946 292.543C163.031 292.51 163.1 292.503 163.113 292.508L163.119 292.507C163.1 292.503 163.171 292.521 163.079 292.486L163.172 292.527C163.245 292.558 163.195 292.563 163.22 292.567C163.492 292.818 163.76 293.337 164.049 293.821C164.2 294.066 164.352 294.323 164.62 294.594C164.759 294.72 164.94 294.879 165.266 294.916C165.317 294.918 165.449 294.911 165.529 294.89C165.597 294.87 165.633 294.854 165.682 294.836C165.774 294.802 165.846 294.763 165.918 294.73C166.47 294.427 166.892 294.1 167.347 293.775C167.788 293.445 168.224 293.122 168.659 292.793C170.395 291.496 172.13 290.25 173.974 289.329C175.871 288.371 177.738 287.498 179.479 286.378C180.355 285.84 181.241 285.339 182.078 284.785C182.893 284.209 183.703 283.645 184.501 283.083C185.291 282.516 186.099 281.99 186.844 281.408C187.582 280.814 188.301 280.228 189.015 279.655C190.424 278.499 191.86 277.423 193.085 276.266C195.626 274.038 197.822 271.782 199.66 269.733C201.475 267.648 202.988 265.771 204.073 264.102C204.354 263.693 204.613 263.306 204.861 262.938C205.088 262.56 205.299 262.203 205.5 261.872C205.895 261.211 206.225 260.645 206.455 260.165C206.929 259.217 207.181 258.71 207.181 258.71C207.203 258.67 207.185 258.621 207.145 258.6C207.105 258.578 207.062 258.595 207.034 258.63L207.029 258.637C207.029 258.637 206.735 259.116 206.187 260.021C205.929 260.478 205.56 261.016 205.123 261.644C204.908 261.957 204.682 262.297 204.434 262.664C204.172 263.014 203.893 263.384 203.598 263.782C203.302 264.173 202.996 264.591 202.659 265.018C202.315 265.433 201.954 265.875 201.576 266.331C200.854 267.266 199.967 268.199 199.071 269.228C197.183 271.218 195.071 273.428 192.51 275.645C191.272 276.803 189.877 277.838 188.461 278.988C187.752 279.554 187.032 280.134 186.301 280.721C185.561 281.296 184.758 281.808 183.98 282.368C183.187 282.917 182.389 283.48 181.579 284.043C180.754 284.583 179.885 285.069 179.027 285.593C177.339 286.676 175.435 287.559 173.555 288.502C171.608 289.466 169.838 290.741 168.083 292.033C167.216 292.666 166.321 293.39 165.465 293.875C165.417 293.899 165.362 293.924 165.326 293.94L165.284 293.957C165.301 293.943 165.366 293.955 165.347 293.963C165.394 293.984 165.335 293.965 165.279 293.907C165.153 293.786 165.01 293.566 164.88 293.344C164.594 292.891 164.397 292.372 163.857 291.849C163.767 291.776 163.618 291.677 163.565 291.657L163.473 291.615C163.347 291.565 163.381 291.587 163.329 291.573L163.233 291.557C162.969 291.52 162.76 291.579 162.589 291.641C162.248 291.77 162.006 291.941 161.761 292.086C161.311 292.397 160.82 292.611 160.696 292.51C160.603 292.462 160.524 292.369 160.447 292.167C160.376 291.965 160.337 291.709 160.29 291.428C160.236 291.142 160.213 290.846 160.015 290.454C159.945 290.328 159.844 290.205 159.81 290.183L159.775 290.142C159.677 290.051 159.679 290.076 159.625 290.037C159.545 289.994 159.451 289.946 159.374 289.935C159.297 289.924 159.215 289.919 159.132 289.921C159.057 289.923 159.008 289.94 158.946 289.953C158.816 289.979 158.744 290.024 158.653 290.058C158.034 290.387 157.648 290.768 157.211 291.015C157.11 291.076 157.013 291.117 156.928 291.151C156.891 291.161 156.859 291.165 156.835 291.173C156.847 291.166 156.86 291.171 156.873 291.176C156.88 291.182 156.887 291.187 156.888 291.193C156.881 291.194 156.855 291.184 156.842 291.179C156.792 291.184 156.684 291.055 156.586 290.837C156.391 290.406 156.277 289.841 156.067 289.266C155.949 288.973 155.85 288.679 155.55 288.341C155.466 288.255 155.348 288.152 155.308 288.131L155.219 288.07C155.099 288 155.14 288.034 155.093 288.007L155.014 287.977C154.796 287.891 154.575 287.888 154.386 287.9C153.655 287.987 153.162 288.252 152.663 288.384C152.417 288.454 152.187 288.496 151.973 288.505C151.865 288.503 151.763 288.494 151.699 288.481C151.673 288.484 151.601 288.459 151.536 288.434L151.437 288.4C151.385 288.38 151.45 288.405 151.437 288.4L151.417 288.383C151.184 288.273 150.951 287.777 150.832 287.288C150.699 286.787 150.626 286.249 150.564 285.698L150.474 284.863L150.424 284.431C150.403 284.281 150.389 284.143 150.327 283.908C150.315 283.846 150.299 283.809 150.29 283.785L150.272 283.736C150.248 283.688 150.302 283.777 150.209 283.615C150.15 283.533 150.093 283.462 150.004 283.395C149.909 283.335 149.776 283.272 149.694 283.268C149.286 283.239 149.14 283.368 148.994 283.421C148.71 283.557 148.507 283.673 148.298 283.738C148.109 283.808 147.894 283.804 147.783 283.777C147.771 283.785 147.692 283.748 147.632 283.722L147.54 283.681C147.613 283.718 147.559 283.685 147.579 283.696C147.565 283.685 147.515 283.626 147.481 283.535C147.317 283.164 147.261 282.606 147.228 282.089C147.164 279.952 147.494 277.757 147.85 275.635C148.218 273.505 148.678 271.411 149.175 269.363C149.671 267.316 150.203 265.31 150.753 263.352C151.028 262.379 151.297 261.401 151.594 260.458C151.905 259.52 152.211 258.595 152.511 257.684C153.837 254.069 155.456 250.793 157.077 247.846C158.704 244.899 160.359 242.285 161.91 240.03C163.44 237.758 164.854 235.834 166.017 234.246C167.186 232.664 168.139 231.445 168.783 230.607C169.433 229.781 169.787 229.333 169.787 229.333C169.826 229.284 169.82 229.215 169.771 229.176C169.733 229.11 169.67 229.116 169.63 229.152Z" fill="#333333" stroke="#333333"/>
</g>
</g>
</svg>
